<svg width="63" height="60" viewBox="0 0 63 60" fill="none" xmlns="http://www.w3.org/2000/svg">
<path d="M51.1875 32.253C52.541 32.253 53.8125 32.5 55.002 32.9941C56.1914 33.4881 57.2373 34.1601 58.1396 35.0099C59.042 35.8597 59.7495 36.8676 60.2622 38.0336C60.7749 39.1996 61.0312 40.4348 61.0312 41.7391C61.0312 42.7668 60.8672 43.7648 60.5391 44.7332C60.2109 45.7016 59.7188 46.6008 59.0625 47.4308V60L51.1875 56.2055L43.3125 60V47.4308C42.6768 46.6008 42.1948 45.7016 41.8667 44.7332C41.5386 43.7648 41.3643 42.7668 41.3438 41.7391C41.3438 40.4348 41.6001 39.2095 42.1128 38.0632C42.6255 36.917 43.3228 35.9091 44.2046 35.0395C45.0864 34.17 46.1323 33.4881 47.3423 32.9941C48.5522 32.5 49.834 32.253 51.1875 32.253ZM51.1875 36.0474C50.3672 36.0474 49.5981 36.1957 48.8804 36.4921C48.1626 36.7885 47.5371 37.1937 47.0039 37.7075C46.4707 38.2213 46.0503 38.8241 45.7427 39.5158C45.4351 40.2075 45.2812 40.9486 45.2812 41.7391C45.2812 42.5296 45.4351 43.2708 45.7427 43.9625C46.0503 44.6542 46.4707 45.2569 47.0039 45.7708C47.5371 46.2846 48.1626 46.6897 48.8804 46.9862C49.5981 47.2826 50.3672 47.4308 51.1875 47.4308C52.0078 47.4308 52.7769 47.2826 53.4946 46.9862C54.2124 46.6897 54.8379 46.2846 55.3711 45.7708C55.9043 45.2569 56.3247 44.6542 56.6323 43.9625C56.9399 43.2708 57.0938 42.5296 57.0938 41.7391C57.0938 40.9486 56.9399 40.2075 56.6323 39.5158C56.3247 38.8241 55.9043 38.2213 55.3711 37.7075C54.8379 37.1937 54.2124 36.7885 53.4946 36.4921C52.7769 36.1957 52.0078 36.0474 51.1875 36.0474ZM55.125 53.834V50.4249C53.8945 50.9585 52.582 51.2253 51.1875 51.2253C49.793 51.2253 48.4805 50.9585 47.25 50.4249V53.834L51.1875 51.9368L55.125 53.834ZM51.1875 15.1779C50.1006 15.1779 49.0854 15.3755 48.1421 15.7708C47.1987 16.166 46.3579 16.7095 45.6196 17.4012C44.8813 18.0929 44.3174 18.8933 43.9277 19.8024C43.5381 20.7115 43.333 21.6996 43.3125 22.7668C43.3125 24.585 42.8921 26.2945 42.0513 27.8953C41.2104 29.496 40.021 30.8498 38.4829 31.9565C38.8726 32.1344 39.2417 32.332 39.5903 32.5494C39.939 32.7668 40.2979 32.9941 40.667 33.2312L38.3599 36.3142C37.355 35.6225 36.2681 35.0889 35.0991 34.7134C33.9302 34.3379 32.7305 34.1502 31.5 34.1502C29.8594 34.1502 28.3315 34.4466 26.9165 35.0395C25.5015 35.6324 24.2505 36.4427 23.1636 37.4704C22.0767 38.498 21.2256 39.7134 20.6104 41.1166C19.9951 42.5198 19.6875 43.9921 19.6875 45.5336H15.75C15.75 44.0909 15.9551 42.6976 16.3652 41.3538C16.7754 40.0099 17.3599 38.7451 18.1187 37.5593C18.8774 36.3735 19.79 35.3063 20.8564 34.3577C21.9229 33.4091 23.1328 32.5988 24.4863 31.9269C22.9688 30.8399 21.7896 29.496 20.9487 27.8953C20.1079 26.2945 19.6875 24.585 19.6875 22.7668C19.6875 21.7194 19.4824 20.7411 19.0723 19.832C18.6621 18.9229 18.0981 18.1126 17.3804 17.4012C16.6626 16.6897 15.832 16.1462 14.8887 15.7708C13.9453 15.3953 12.9199 15.1976 11.8125 15.1779C10.7256 15.1779 9.71045 15.3755 8.76709 15.7708C7.82373 16.166 6.98291 16.7095 6.24463 17.4012C5.50635 18.0929 4.94238 18.8933 4.55273 19.8024C4.16309 20.7115 3.95801 21.6996 3.9375 22.7668H0C0 21.7391 0.143555 20.7411 0.430664 19.7727C0.717773 18.8043 1.11768 17.8854 1.63037 17.0158C2.14307 16.1462 2.77881 15.3557 3.5376 14.6443C4.29639 13.9328 5.14746 13.3202 6.09082 12.8063C5.41406 12.1146 4.89111 11.3142 4.52197 10.4051C4.15283 9.49605 3.95801 8.55731 3.9375 7.58893C3.9375 6.5415 4.14258 5.56324 4.55273 4.65415C4.96289 3.74506 5.52686 2.93478 6.24463 2.22332C6.9624 1.51186 7.79297 0.968379 8.73633 0.592885C9.67969 0.217391 10.7051 0.0197628 11.8125 0C12.8994 0 13.9146 0.197628 14.8579 0.592885C15.8013 0.988142 16.6421 1.53162 17.3804 2.22332C18.1187 2.91502 18.6826 3.71542 19.0723 4.62451C19.4619 5.5336 19.667 6.52174 19.6875 7.58893C19.6875 8.55731 19.5029 9.49605 19.1338 10.4051C18.7646 11.3142 18.2314 12.1146 17.5342 12.8063C19.2158 13.6957 20.5898 14.9209 21.6562 16.4822C22.21 15.6917 22.8457 14.9802 23.5635 14.3478C24.2812 13.7154 25.0605 13.1818 25.9014 12.747C26.7422 12.3123 27.6343 11.9763 28.5776 11.7391C29.521 11.502 30.4951 11.3834 31.5 11.3834C32.4844 11.3834 33.4482 11.502 34.3916 11.7391C35.335 11.9763 36.2271 12.3123 37.0679 12.747C37.9087 13.1818 38.6982 13.7154 39.4365 14.3478C40.1748 14.9802 40.8105 15.6917 41.3438 16.4822C42.4102 14.9209 43.7842 13.6957 45.4658 12.8063C44.7891 12.1146 44.2661 11.3142 43.897 10.4051C43.5278 9.49605 43.333 8.55731 43.3125 7.58893C43.3125 6.5415 43.5176 5.56324 43.9277 4.65415C44.3379 3.74506 44.9019 2.93478 45.6196 2.22332C46.3374 1.51186 47.168 0.968379 48.1113 0.592885C49.0547 0.217391 50.0801 0.0197628 51.1875 0C52.2744 0 53.2896 0.197628 54.2329 0.592885C55.1763 0.988142 56.0171 1.53162 56.7554 2.22332C57.4937 2.91502 58.0576 3.71542 58.4473 4.62451C58.8369 5.5336 59.042 6.52174 59.0625 7.58893C59.0625 8.55731 58.8779 9.49605 58.5088 10.4051C58.1396 11.3142 57.6064 12.1146 56.9092 12.8063C57.8525 13.3202 58.6934 13.9328 59.4316 14.6443C60.1699 15.3557 60.8057 16.1364 61.3389 16.9862C61.8721 17.836 62.2822 18.7549 62.5693 19.7431C62.8564 20.7312 63 21.7391 63 22.7668H59.0625C59.0625 21.7194 58.8574 20.7411 58.4473 19.832C58.0371 18.9229 57.4731 18.1126 56.7554 17.4012C56.0376 16.6897 55.207 16.1462 54.2637 15.7708C53.3203 15.3953 52.2949 15.1976 51.1875 15.1779ZM47.25 7.58893C47.25 8.12253 47.3525 8.6166 47.5576 9.07115C47.7627 9.52569 48.0396 9.92095 48.3882 10.2569C48.7368 10.5929 49.1572 10.8696 49.6494 11.087C50.1416 11.3043 50.6543 11.4032 51.1875 11.3834C51.7412 11.3834 52.2539 11.2846 52.7256 11.087C53.1973 10.8893 53.6074 10.6225 53.9561 10.2866C54.3047 9.95059 54.5918 9.54545 54.8174 9.07115C55.043 8.59684 55.1455 8.10277 55.125 7.58893C55.125 7.05534 55.0225 6.56126 54.8174 6.10672C54.6123 5.65217 54.3354 5.25692 53.9868 4.92095C53.6382 4.58498 53.2178 4.3083 52.7256 4.09091C52.2334 3.87352 51.7207 3.7747 51.1875 3.79447C50.6338 3.79447 50.1211 3.89328 49.6494 4.09091C49.1777 4.28854 48.7676 4.55534 48.4189 4.8913C48.0703 5.22727 47.7832 5.63241 47.5576 6.10672C47.332 6.58103 47.2295 7.0751 47.25 7.58893ZM7.875 7.58893C7.875 8.12253 7.97754 8.6166 8.18262 9.07115C8.3877 9.52569 8.66455 9.92095 9.01318 10.2569C9.36182 10.5929 9.78223 10.8696 10.2744 11.087C10.7666 11.3043 11.2793 11.4032 11.8125 11.3834C12.3662 11.3834 12.8789 11.2846 13.3506 11.087C13.8223 10.8893 14.2324 10.6225 14.5811 10.2866C14.9297 9.95059 15.2168 9.54545 15.4424 9.07115C15.668 8.59684 15.7705 8.10277 15.75 7.58893C15.75 7.05534 15.6475 6.56126 15.4424 6.10672C15.2373 5.65217 14.9604 5.25692 14.6118 4.92095C14.2632 4.58498 13.8428 4.3083 13.3506 4.09091C12.8584 3.87352 12.3457 3.7747 11.8125 3.79447C11.2588 3.79447 10.7461 3.89328 10.2744 4.09091C9.80273 4.28854 9.39258 4.55534 9.04395 4.8913C8.69531 5.22727 8.4082 5.63241 8.18262 6.10672C7.95703 6.58103 7.85449 7.0751 7.875 7.58893ZM23.625 22.7668C23.625 23.8142 23.8301 24.7925 24.2402 25.7016C24.6504 26.6107 25.2144 27.4209 25.9321 28.1324C26.6499 28.8439 27.4805 29.3874 28.4238 29.7628C29.3672 30.1383 30.3926 30.336 31.5 30.3557C32.5869 30.3557 33.6021 30.1581 34.5454 29.7628C35.4888 29.3676 36.3296 28.8241 37.0679 28.1324C37.8062 27.4407 38.3701 26.6403 38.7598 25.7312C39.1494 24.8221 39.3545 23.834 39.375 22.7668C39.375 21.7194 39.1699 20.7411 38.7598 19.832C38.3496 18.9229 37.7856 18.1126 37.0679 17.4012C36.3501 16.6897 35.5195 16.1462 34.5762 15.7708C33.6328 15.3953 32.6074 15.1976 31.5 15.1779C30.4131 15.1779 29.3979 15.3755 28.4546 15.7708C27.5112 16.166 26.6704 16.7095 25.9321 17.4012C25.1938 18.0929 24.6299 18.8933 24.2402 19.8024C23.8506 20.7115 23.6455 21.6996 23.625 22.7668Z" fill="black"/>
</svg>
