<svg width="44" height="60" viewBox="0 0 44 60" fill="none" xmlns="http://www.w3.org/2000/svg">
<path d="M37.7143 57.7497L37.7206 39.7451C33.2637 43.1626 27.7162 45.021 22 45.0114C16.2863 45.0205 10.7413 43.1632 6.28571 39.7481L6.29514 57.7527C6.29617 58.1642 6.41535 58.5676 6.63973 58.9189C6.86411 59.2703 7.18509 59.5562 7.56776 59.7455C7.95044 59.9349 8.38016 60.0204 8.8102 59.9928C9.24024 59.9653 9.65413 59.8256 10.0069 59.5892L22.0031 51.5261L34.0026 59.5892C34.3555 59.8266 34.77 59.967 35.2008 59.9948C35.6316 60.0227 36.0622 59.9371 36.4455 59.7473C36.8288 59.5575 37.1501 59.2708 37.3744 58.9186C37.5987 58.5663 37.7142 58.162 37.7143 57.7497ZM44 21.0053C44 18.2469 43.431 15.5154 42.3254 12.9669C41.2197 10.4185 39.5992 8.10285 37.5563 6.15232C35.5135 4.2018 33.0882 2.65455 30.419 1.59894C27.7499 0.543319 24.8891 0 22 0C19.1109 0 16.2501 0.543319 13.581 1.59894C10.9118 2.65455 8.48654 4.2018 6.44365 6.15232C4.40076 8.10285 2.78025 10.4185 1.67465 12.9669C0.569046 15.5154 -4.30507e-08 18.2469 0 21.0053C8.69447e-08 26.5763 2.31785 31.9191 6.44365 35.8584C10.5695 39.7976 16.1652 42.0107 22 42.0107C27.8348 42.0107 33.4305 39.7976 37.5563 35.8584C41.6821 31.9191 44 26.5763 44 21.0053ZM22.7197 10.9288L25.586 16.4892L32.01 17.3744C32.67 17.4644 32.9309 18.2386 32.4563 18.6798L27.808 23.0008L28.908 29.1104C28.9334 29.2512 28.917 29.3959 28.8608 29.5283C28.8045 29.6606 28.7105 29.7753 28.5895 29.8593C28.4685 29.9433 28.3253 29.9933 28.176 30.0036C28.0268 30.0139 27.8776 29.9841 27.7451 29.9176L22 27.0309L16.258 29.9176C16.1256 29.9841 15.9763 30.0139 15.8271 30.0036C15.6779 29.9933 15.5347 29.9433 15.4137 29.8593C15.2926 29.7753 15.1987 29.6606 15.1424 29.5283C15.0861 29.3959 15.0697 29.2512 15.0951 29.1104L16.1951 23.0039L11.5437 18.6828C11.4356 18.5831 11.359 18.4564 11.3227 18.3172C11.2864 18.1779 11.2919 18.0318 11.3384 17.8953C11.3849 17.7589 11.4707 17.6377 11.5859 17.5456C11.7011 17.4535 11.8412 17.3942 11.99 17.3744L18.414 16.4892L21.2803 10.9288C21.3462 10.8002 21.4487 10.6919 21.5759 10.6161C21.7031 10.5404 21.8501 10.5002 22 10.5002C22.1499 10.5002 22.2969 10.5404 22.4241 10.6161C22.5513 10.6919 22.6538 10.8002 22.7197 10.9288Z" fill="#111B47"/>
</svg>
