<svg width="20" height="20" viewBox="0 0 20 20" fill="none" xmlns="http://www.w3.org/2000/svg">
<path d="M7.42857 0C9.39875 0 11.2882 0.745381 12.6814 2.07217C14.0745 3.39896 14.8571 5.19847 14.8571 7.07483C14.8571 8.82721 14.1829 10.4381 13.0743 11.6789L13.3829 11.9728H14.2857L20 17.415L18.2857 19.0476L12.5714 13.6054V12.7456L12.2629 12.4517C10.9149 13.5475 9.20081 14.1496 7.42857 14.1497C5.45839 14.1497 3.56891 13.4043 2.17578 12.0775C0.782651 10.7507 0 8.95119 0 7.07483C0 5.19847 0.782651 3.39896 2.17578 2.07217C3.56891 0.745381 5.45839 0 7.42857 0ZM7.42857 2.17687C4.57143 2.17687 2.28571 4.35374 2.28571 7.07483C2.28571 9.79592 4.57143 11.9728 7.42857 11.9728C10.2857 11.9728 12.5714 9.79592 12.5714 7.07483C12.5714 4.35374 10.2857 2.17687 7.42857 2.17687Z" fill="black"/>
</svg>
