<svg width="60" height="60" viewBox="0 0 60 60" fill="none" xmlns="http://www.w3.org/2000/svg">
<path fill-rule="evenodd" clip-rule="evenodd" d="M45 20.8917C46.9383 21.4717 48.3333 21.6667 48.3333 21.6667V16.6667H51.6667C53.8768 16.6667 55.9964 15.7887 57.5592 14.2259C59.122 12.6631 60 10.5435 60 8.33333C60 6.1232 59.122 4.00358 57.5592 2.44078C55.9964 0.877973 53.8768 0 51.6667 0H42.06C39.7455 0 37.5259 0.919414 35.8893 2.55598C34.2527 4.19255 33.3333 6.41221 33.3333 8.72667C33.3333 16.2567 40.58 19.57 45 20.8917ZM56.6667 8.33333C56.6667 9.65942 56.1399 10.9312 55.2022 11.8689C54.2645 12.8066 52.9928 13.3333 51.6667 13.3333H45V17.3917C44.0856 17.0812 43.1931 16.7098 42.3283 16.28C39.0233 14.6233 36.6667 12.2667 36.6667 8.72667C36.6667 7.29627 37.2349 5.92445 38.2463 4.913C39.2578 3.90156 40.6296 3.33333 42.06 3.33333H51.6667C52.9928 3.33333 54.2645 3.86012 55.2022 4.7978C56.1399 5.73548 56.6667 7.00725 56.6667 8.33333ZM14.695 19.9883C12.5109 19.9127 10.4439 18.9818 8.93985 17.3962C7.43578 15.8107 6.61505 13.6976 6.65463 11.5125C6.69421 9.32738 7.59092 7.24537 9.15143 5.71533C10.7119 4.1853 12.8112 3.32982 14.9967 3.33333H20.2783C22.4147 3.33333 24.4635 4.18198 25.9741 5.69259C27.4847 7.20319 28.3333 9.25202 28.3333 11.3883C28.3333 18.125 22.2833 21.205 18.3333 22.5C16.42 23.1267 15 23.3333 15 23.3333V20L14.695 19.9883ZM18.3333 16.785L14.8167 16.6583C13.4951 16.6296 12.2388 16.0784 11.3228 15.1254C10.4068 14.1724 9.90577 12.8953 9.92936 11.5737C9.95295 10.2521 10.4993 8.99362 11.4487 8.07392C12.3981 7.15423 13.6733 6.64821 14.995 6.66667H20.2767C20.8969 6.66645 21.511 6.78842 22.0841 7.0256C22.6571 7.26279 23.1778 7.61055 23.6165 8.04902C24.0551 8.48749 24.403 9.00808 24.6404 9.58104C24.8778 10.154 25 10.7681 25 11.3883C25 14.58 22.9717 16.6717 20.1267 18.155C19.5267 18.4683 18.9183 18.735 18.3333 18.9617V16.785ZM36.6667 30C36.6667 33.6833 33.6833 36.6667 30 36.6667C26.3167 36.6667 23.3333 33.6833 23.3333 30C23.3333 26.3167 26.3167 23.3333 30 23.3333C33.6833 23.3333 36.6667 26.3167 36.6667 30ZM33.3333 30C33.3333 30.8841 32.9821 31.7319 32.357 32.357C31.7319 32.9821 30.8841 33.3333 30 33.3333C29.1159 33.3333 28.2681 32.9821 27.643 32.357C27.0179 31.7319 26.6667 30.8841 26.6667 30C26.6667 29.1159 27.0179 28.2681 27.643 27.643C28.2681 27.0179 29.1159 26.6667 30 26.6667C30.8841 26.6667 31.7319 27.0179 32.357 27.643C32.9821 28.2681 33.3333 29.1159 33.3333 30ZM21.6667 33.3333C21.6667 37.0167 18.6833 40 15 40C11.3167 40 8.33333 37.0167 8.33333 33.3333C8.33333 29.65 11.3167 26.6667 15 26.6667C18.6833 26.6667 21.6667 29.65 21.6667 33.3333ZM18.3333 33.3333C18.3333 34.2174 17.9821 35.0652 17.357 35.6904C16.7319 36.3155 15.8841 36.6667 15 36.6667C14.1159 36.6667 13.2681 36.3155 12.643 35.6904C12.0179 35.0652 11.6667 34.2174 11.6667 33.3333C11.6667 32.4493 12.0179 31.6014 12.643 30.9763C13.2681 30.3512 14.1159 30 15 30C15.8841 30 16.7319 30.3512 17.357 30.9763C17.9821 31.6014 18.3333 32.4493 18.3333 33.3333ZM0 50.91C0 45.87 9.99333 43.3333 15 43.3333C15.975 43.3333 17.14 43.43 18.3833 43.6217C20.6183 41.9833 24.7117 40 30 40C35.2867 40 39.3817 41.9833 41.6183 43.6217C42.7368 43.4413 43.8672 43.3449 45 43.3333C50.0067 43.3333 60 45.8717 60 50.9083V60H0V50.91ZM26.0867 50.0383C26.6667 50.5783 26.6667 50.86 26.6667 50.9083V56.6667H3.33333V50.9083C3.33333 50.8583 3.33333 50.5783 3.91333 50.0383C4.51833 49.4733 5.51667 48.8717 6.87333 48.3217C9.59333 47.2217 12.9167 46.6667 15 46.6667C17.0833 46.6667 20.4067 47.2217 23.1267 48.3217C24.4833 48.8717 25.4817 49.4733 26.0867 50.0383ZM36.9033 44.76C34.7247 43.8153 32.3747 43.3296 30 43.3333C27.24 43.3333 24.8933 43.9767 23.0983 44.76C26.79 46 30 48.0533 30 50.91C30 48.0533 33.21 46.0017 36.9033 44.76ZM56.6667 50.91C56.6667 50.86 56.6667 50.5783 56.0867 50.0383C55.4817 49.4733 54.4833 48.8717 53.1267 48.3217C50.4067 47.2217 47.0833 46.6667 45 46.6667C42.9167 46.6667 39.5933 47.2217 36.8733 48.3217C35.5167 48.8717 34.5183 49.4733 33.9133 50.0383C33.3333 50.5783 33.3333 50.86 33.3333 50.9083V56.6667H56.6667V50.91ZM45 40C48.6833 40 51.6667 37.0167 51.6667 33.3333C51.6667 29.65 48.6833 26.6667 45 26.6667C41.3167 26.6667 38.3333 29.65 38.3333 33.3333C38.3333 37.0167 41.3167 40 45 40ZM45 36.6667C45.8841 36.6667 46.7319 36.3155 47.357 35.6904C47.9821 35.0652 48.3333 34.2174 48.3333 33.3333C48.3333 32.4493 47.9821 31.6014 47.357 30.9763C46.7319 30.3512 45.8841 30 45 30C44.1159 30 43.2681 30.3512 42.643 30.9763C42.0179 31.6014 41.6667 32.4493 41.6667 33.3333C41.6667 34.2174 42.0179 35.0652 42.643 35.6904C43.2681 36.3155 44.1159 36.6667 45 36.6667Z" fill="black"/>
</svg>
